<svg width="518" height="137" viewBox="0 0 518 137" fill="none" xmlns="http://www.w3.org/2000/svg">
<g clip-path="url(#clip0_66_3623)">
<path d="M85.1808 66.0884C96.5509 62.2377 105.027 50.8705 105.027 36.8057C105.027 15.606 89.9956 0.00396729 63.4083 0.00396729H0V136.605H67.0702C92.6904 136.605 109.262 120.617 109.262 98.4597C109.262 81.5037 98.4746 69.3658 85.1808 66.0884ZM26.2031 22.3567H59.164C72.0827 22.3567 78.8239 28.8997 78.8239 39.3122C78.8239 49.7151 71.5008 56.4561 59.3621 56.4561H26.2031V22.3567ZM62.0572 114.448H26.2031V78.4247H62.4415C75.735 78.4247 82.6745 85.9369 82.6745 96.7238C82.6745 107.707 74.9666 114.448 62.0572 114.448Z" fill="#161E28"/>
<path d="M352.774 90.3633L295.938 0H262.805V136.611H289.395V39.6949L351.433 136.611H379.365V0H352.774V90.3633Z" fill="#161E28"/>
<path d="M179.863 101.544L144.493 0.0883368L125.891 29.1392L165.603 136.611H192.971L243.639 0H215.512L179.863 101.544Z" fill="#161E28"/>
<path d="M518 0H485.868L429.609 67.5377V0H402.986V136.611H429.609V69.0725L485.868 136.611H518L460.486 68.3041L518 0Z" fill="#161E28"/>
</g>
<defs>
<clipPath id="clip0_66_3623">
<rect width="518" height="136.611" fill="white"/>
</clipPath>
</defs>
</svg>
